<?xml version="1.0" encoding="utf-8"?>

<svg xmlns="http://www.w3.org/2000/svg" version="1.1" style="display: block;" viewBox="0 0 2048 2048" width="1000" height="1000" preserveAspectRatio="none">  
  <path transform="translate(0,0)" fill="rgb(0,0,0)" d="M 1232.39 213.459 C 1316.23 219.805 1390.92 261.463 1407.82 350.297 C 1415.38 390.06 1402.52 420.891 1381.41 453.627 C 1381.54 456.218 1385.03 456.982 1387.68 457.983 C 1420.59 470.39 1453.19 482.746 1484.12 499.687 C 1499.08 507.876 1520.44 517.358 1534.56 525.961 C 1601.03 566.454 1671.5 617.067 1724.34 673.91 C 1776.32 729.82 1831.09 800.546 1867.93 867.345 C 1929.64 981.087 1960.4 1109.04 1957.14 1238.4 C 1956.77 1250.34 1954.07 1272.43 1952.82 1284.91 C 1941.16 1401.57 1893.17 1517.67 1813.97 1605.04 C 1714.49 1714.79 1569.33 1772.64 1426.15 1798.09 C 1406.23 1801.64 1385.86 1803.28 1365.88 1805.64 C 1317.43 1811.75 1268.8 1816.23 1220.05 1819.09 C 1209.96 1819.75 1197.93 1821.76 1188.12 1821.77 C 1155.78 1821.86 1123.71 1824.83 1091.4 1826.24 C 1066.92 1827.3 1043.03 1826.47 1018.55 1825.73 C 1003.89 1825.28 989.112 1826.22 974.37 1825.25 C 922.456 1821.84 870.422 1820.03 818.553 1816.08 C 790.708 1813.95 762.981 1810.89 735.152 1808.77 C 728.617 1808.27 722.291 1807.14 715.819 1806.94 C 710.338 1805.44 708.542 1805.82 703.121 1805.49 C 681.819 1804.2 659.716 1801.25 638.577 1798.43 C 595.068 1792.62 542.445 1784.57 500.633 1771.94 C 396.173 1740.39 290.289 1684.83 217.16 1602.24 C 202.022 1584.32 184.753 1565.41 171.237 1546.31 C 98.8652 1444.07 71.963 1321.71 75.9777 1197.9 C 82.9868 981.757 194.358 776.368 352.639 632.682 C 423.358 568.484 512.461 514.827 599.025 475.333 C 606.01 472.146 649.341 456.986 651.587 454.96 C 651.1 451.454 644.542 444.529 642.393 440.46 C 603.922 367.583 646.257 278.511 724.191 256.638 C 753.054 248.537 789.66 250.546 815.77 266.031 C 847.038 212.45 936.27 204.037 984.912 236.167 C 1017.9 257.96 1046.46 295.994 1054.61 334.653 C 1058.24 324.969 1071.73 303.711 1077.92 294.986 C 1104.42 257.59 1148.15 228.732 1192.75 218.034 C 1206.28 214.787 1219.24 215.626 1231.31 213.645 L 1232.39 213.459 z"/>  
  <path transform="translate(0,0)" fill="rgb(254,246,228)" d="M 1223.77 255.489 C 1242.63 254.431 1261.52 257.207 1279.29 263.648 C 1373.16 297.1 1398.8 394.578 1321.16 460.986 C 1313.56 467.486 1305.42 475.294 1302.06 484.784 L 1301.59 486.159 C 1317.12 510.391 1332.04 498.41 1349.8 486.059 C 1358.86 491.477 1374.46 497.866 1384.57 501.932 C 1408.83 511.572 1431.55 523.078 1454.83 534.575 C 1737.4 674.092 1954.15 981.533 1903.35 1306.05 C 1882.46 1439.51 1817.12 1558.27 1706.33 1637.67 C 1596.85 1716.28 1466.5 1748.27 1334.49 1761.98 C 1263.62 1769.34 1191.79 1774.47 1120.53 1777.07 C 1093.96 1778.04 1067.49 1780.15 1040.73 1779.69 C 934.453 1777.89 827.635 1771.16 722.087 1758.62 C 715.157 1757.79 707.523 1758.63 700.767 1757.83 C 679.128 1755.28 657.474 1753.81 635.954 1750.24 C 624.968 1748.68 614.899 1748.32 602.969 1746.47 C 421.787 1716.8 257.952 1624.93 173.919 1457.96 C 134.842 1380.31 121.558 1301.27 121.977 1215.41 C 122.406 1113.56 146.02 1013.15 191.029 921.792 C 226.902 847.25 287.756 758.939 346.373 700.463 C 437.592 609.462 564.713 529.363 686.217 486.682 C 696.484 495.481 699.555 497.487 712.264 501.705 C 742.765 488.275 727.856 476.841 709.778 460.282 C 685.161 437.733 666.03 407.641 670.683 372.9 C 674.334 345.636 690.72 321.527 713.774 306.781 C 717.622 304.357 722.964 300.55 727.678 301.096 C 735.081 301.939 740.733 294.777 747.596 292.96 C 770.192 288.089 791.648 296.236 812.32 304.419 C 817.828 306.599 822.212 306.091 828.074 306.251 C 836.957 299.228 846.418 287.105 852.574 282.384 C 862.105 275.076 887.398 266.722 899.311 260.02 C 915.21 254.746 938.103 259.652 952.773 266.441 C 1012.53 294.096 1037.43 376.374 1029.82 437.832 C 1028.49 448.563 1027.33 462.39 1030.31 472.713 C 1031.96 478.465 1040.13 481.052 1045.04 482.791 C 1058.24 477.986 1060.41 474.793 1062.59 460.376 C 1065.45 441.386 1066.35 421.687 1069.4 402.776 C 1072.04 387.063 1077.01 371.83 1084.12 357.574 C 1094.68 336.15 1105.73 319.078 1124.06 304.172 C 1129.01 300.14 1135.01 291.393 1140.67 288.131 C 1154.7 280.042 1168.22 269.719 1183.46 264.185 C 1197.71 259.991 1208.83 260.529 1223.77 255.489 z"/>  
  <path transform="translate(0,0)" fill="rgb(0,0,0)" d="M 784.427 910.268 C 827.198 911.65 860.841 947.282 859.767 990.062 C 858.692 1032.84 823.303 1066.74 780.517 1065.97 C 737.293 1065.2 702.971 1029.37 704.056 986.152 C 705.141 942.935 741.219 908.871 784.427 910.268 z"/>  
  <path transform="translate(0,0)" fill="rgb(0,0,0)" d="M 1239.37 911.011 C 1281.6 904.033 1321.52 932.502 1328.68 974.696 C 1335.83 1016.89 1307.54 1056.93 1265.37 1064.27 C 1222.95 1071.65 1182.62 1043.15 1175.41 1000.7 C 1168.21 958.247 1196.89 918.031 1239.37 911.011 z"/>  
  <path transform="translate(0,0)" fill="rgb(0,0,0)" d="M 1110.61 1099.26 C 1111.59 1099.35 1112.56 1099.46 1113.52 1099.59 C 1125.9 1101.22 1132.24 1111.27 1129.81 1123.21 C 1125.41 1144.78 1106.62 1164.7 1089.03 1176.63 C 1060.5 1195.87 1025.45 1202.89 991.711 1196.1 C 958.373 1189.44 932.414 1173.25 913.653 1145.06 C 907.208 1133.69 905.808 1127.22 904.873 1114.55 C 907.768 1109.96 909.905 1105.96 914.813 1103.42 C 937.539 1091.66 939.885 1119.65 947.189 1129.58 C 979.846 1173.98 1061.8 1172.17 1089.34 1123.39 C 1095.43 1112.6 1097.97 1103.01 1110.61 1099.26 z"/>  
  <path transform="translate(0,0)" fill="rgb(0,0,0)" d="M 859.392 399.859 C 867.456 399.673 873.256 400.092 879.575 405.768 C 904.685 428.324 913.218 455.993 917.048 487.338 C 914.425 493.703 913.411 496.256 908.15 500.649 C 881.272 510.708 884.286 483.997 879.219 467.937 C 872.846 447.738 860.257 430.046 851.294 411.161 C 854.312 405.697 854.918 404.462 859.392 399.859 z"/>  
  <path transform="translate(0,0)" fill="rgb(0,0,0)" d="M 1179.23 401.951 C 1209.14 404.702 1192.18 423.198 1185.26 439.658 C 1181.49 448.641 1175.61 460.612 1172.98 469.982 C 1168.37 486.335 1176.97 495.91 1157.78 504.148 C 1156.8 504.018 1155.83 503.878 1154.85 503.729 C 1136.67 500.894 1136.5 485.545 1139.84 470.538 C 1145.24 446.256 1157.91 416.057 1179.23 401.951 z"/>  
  <path transform="translate(0,0)" fill="rgb(50,31,5)" d="M 1318.82 478.654 C 1322.44 479.055 1325.07 482.29 1324.71 485.913 C 1324.36 489.536 1321.16 492.202 1317.53 491.894 C 1315.14 491.692 1313.05 490.22 1312.04 488.042 C 1311.04 485.863 1311.29 483.315 1312.7 481.371 C 1314.1 479.428 1316.44 478.39 1318.82 478.654 z"/> 
</svg>
